<svg xmlns="http://www.w3.org/2000/svg" width="118" height="117" viewBox="0 0 118 117" fill="none">
  <g filter="url(#filter0_d_21_523)">
    <mask id="mask0_21_523" style="mask-type:luminance" maskUnits="userSpaceOnUse" x="4" y="0" width="110" height="109">
      <path d="M59 104C86.6142 104 109 81.8381 109 54.5C109 27.1619 86.6142 5 59 5C31.3858 5 9 27.1619 9 54.5C9 81.8381 31.3858 104 59 104Z" stroke="white" stroke-width="8.33333" stroke-linecap="round" stroke-linejoin="round"/>
      <path d="M59 5C68.889 5 78.556 7.90312 86.7785 13.3423C95.0009 18.7814 101.41 26.5122 105.194 35.5572C108.978 44.6021 109.968 54.5549 108.039 64.157C106.11 73.759 101.348 82.5791 94.3553 89.5018C87.3627 96.4245 78.4535 101.139 68.7545 103.049C59.0555 104.959 49.0021 103.979 39.8658 100.232C30.7295 96.4855 22.9206 90.1409 17.4265 82.0007C11.9324 73.8605 9 64.2902 9 54.5H59V5Z" fill="white" stroke="white" stroke-width="8.33333" stroke-linecap="round" stroke-linejoin="round"/>
    </mask>
    <g mask="url(#mask0_21_523)">
      <g filter="url(#filter1_d_21_523)">
        <path d="M-1 -4.89996H119V113.9H-1V-4.89996Z" fill="#F20574"/>
      </g>
    </g>
  </g>
  <defs>
    <filter id="filter0_d_21_523" x="0.833313" y="0.833313" width="116.333" height="115.333" filterUnits="userSpaceOnUse" color-interpolation-filters="sRGB">
      <feFlood flood-opacity="0" result="BackgroundImageFix"/>
      <feColorMatrix in="SourceAlpha" type="matrix" values="0 0 0 0 0 0 0 0 0 0 0 0 0 0 0 0 0 0 127 0" result="hardAlpha"/>
      <feOffset dy="4"/>
      <feGaussianBlur stdDeviation="2"/>
      <feComposite in2="hardAlpha" operator="out"/>
      <feColorMatrix type="matrix" values="0 0 0 0 0 0 0 0 0 0 0 0 0 0 0 0 0 0 0.25 0"/>
      <feBlend mode="normal" in2="BackgroundImageFix" result="effect1_dropShadow_21_523"/>
      <feBlend mode="normal" in="SourceGraphic" in2="effect1_dropShadow_21_523" result="shape"/>
    </filter>
    <filter id="filter1_d_21_523" x="-5" y="-4.89996" width="128" height="126.8" filterUnits="userSpaceOnUse" color-interpolation-filters="sRGB">
      <feFlood flood-opacity="0" result="BackgroundImageFix"/>
      <feColorMatrix in="SourceAlpha" type="matrix" values="0 0 0 0 0 0 0 0 0 0 0 0 0 0 0 0 0 0 127 0" result="hardAlpha"/>
      <feOffset dy="4"/>
      <feGaussianBlur stdDeviation="2"/>
      <feComposite in2="hardAlpha" operator="out"/>
      <feColorMatrix type="matrix" values="0 0 0 0 0 0 0 0 0 0 0 0 0 0 0 0 0 0 0.25 0"/>
      <feBlend mode="normal" in2="BackgroundImageFix" result="effect1_dropShadow_21_523"/>
      <feBlend mode="normal" in="SourceGraphic" in2="effect1_dropShadow_21_523" result="shape"/>
    </filter>
  </defs>
</svg>