<svg xmlns="http://www.w3.org/2000/svg" width="73" height="71" viewBox="0 0 73 71" fill="none">
    <g clip-path="url(#clip0_21_553)">
    <path d="M15.33 22.72C6.90507 22.72 0 29.4153 0 37.5874C0 40.754 1.03952 43.6969 2.79955 46.1159L13.4597 64.0391C14.9526 65.9362 15.9454 65.5763 17.1871 63.9397L28.9445 44.4786C29.1818 44.0597 29.3679 43.6153 29.5307 43.1609C30.2768 41.3923 30.6604 39.499 30.66 37.5874C30.66 29.4153 23.7571 22.72 15.33 22.72ZM15.33 29.6865C19.8677 29.6865 23.4768 33.1875 23.4768 37.5881C23.4768 41.9887 19.8677 45.4883 15.33 45.4883C10.793 45.4883 7.1832 41.988 7.1832 37.5881C7.1832 33.1875 10.793 29.6865 15.33 29.6865Z" fill="#135794"/>
    <path d="M64.0575 0C59.1431 0 55.115 3.90571 55.115 8.67336C55.115 10.5201 55.7209 12.2368 56.748 13.6476L62.9669 24.1031C63.8378 25.2093 64.4167 24.9991 65.1408 24.0449L71.9992 12.692C72.1379 12.4484 72.2466 12.1893 72.3408 11.9237C72.7762 10.8924 73.0001 9.78824 73 8.67336C73 3.905 68.9733 0 64.0575 0ZM64.0575 4.06404C66.7045 4.06404 68.8098 6.106 68.8098 8.67336C68.8098 11.24 66.7045 13.2813 64.0575 13.2813C61.4112 13.2813 59.3052 11.24 59.3052 8.67336C59.3052 6.106 61.4112 4.06404 64.0575 4.06404Z" fill="#135794"/>
    <path fill-rule="evenodd" clip-rule="evenodd" d="M64.3926 26.5625C62.7523 26.598 61.1076 26.6655 59.46 26.784L59.714 30.7117C61.2967 30.6003 62.882 30.5285 64.4685 30.4966L64.3926 26.5625ZM55.6508 27.1447C53.1177 27.4507 50.5627 27.8867 48.0369 28.5874L48.9881 32.3937C51.2832 31.7576 53.6616 31.3465 56.0772 31.0547L55.6508 27.1447ZM44.2548 29.9052C43.498 30.2301 42.7653 30.6056 42.0619 31.0291L42.059 31.0327L42.0546 31.0341C41.0508 31.6489 39.9931 32.4292 39.1295 33.5631C38.5039 34.3846 37.9921 35.4233 37.8724 36.6516L41.5918 37.0528C41.6195 36.7645 41.7713 36.3839 42.0444 36.0261H42.0458V36.0247C42.486 35.4453 43.1459 34.9192 43.9307 34.4378L43.9336 34.4364C44.493 34.1006 45.0754 33.8027 45.6768 33.5446L44.2548 29.9052ZM42.34 38.805L39.9288 41.8119C40.5004 42.3202 41.0997 42.7107 41.6786 43.0373L41.6859 43.0409L41.6932 43.0451C43.6146 44.108 45.5958 44.708 47.4325 45.2774L48.4881 41.5016C46.6521 40.9322 44.9213 40.3827 43.4379 39.5633C43.0131 39.3233 42.6408 39.0727 42.34 38.805ZM52.0746 42.5638L51.0438 46.3459L51.5314 46.4936L52.13 46.6796C54.1113 47.3066 56.0093 47.9761 57.7058 48.9026L59.4271 45.4095C57.3758 44.2884 55.2464 43.5556 53.1944 42.9067L53.1885 42.9053L52.5739 42.7143L52.0746 42.5638ZM62.9275 48.0308L60.2827 50.814C60.9076 51.4721 61.3755 52.2638 61.6033 53.0817L61.6047 53.086L61.6062 53.0924C61.8777 54.0473 61.8785 55.1705 61.666 56.3051L65.3336 57.0662C65.6329 55.4645 65.681 53.7058 65.189 51.9698C64.7605 50.4348 63.9429 49.1015 62.9275 48.0308ZM60.3856 58.6765C59.9815 59.0917 59.5348 59.4656 59.0526 59.7926H59.0512C57.7372 60.6915 56.2129 61.3688 54.5938 61.951L55.8012 65.6743C57.5722 65.0374 59.3906 64.2564 61.0901 63.0934L61.0944 63.0899L61.0966 63.0885C61.7946 62.6131 62.4401 62.069 63.0231 61.4647L60.3856 58.6765ZM51.1584 62.9997C48.8129 63.6131 46.4156 64.0803 43.9891 64.4765L44.5614 68.3666C47.0587 67.9583 49.5663 67.4706 52.0585 66.8188L51.1584 62.9997ZM40.3384 65.0133C37.8958 65.3377 35.4401 65.6026 32.977 65.8283L33.2997 69.749C35.8007 69.5203 38.306 69.2513 40.8077 68.9183L40.3384 65.0133ZM29.2752 66.1372C26.8071 66.3275 24.3331 66.4823 21.8569 66.6129L22.0438 70.5434C24.5441 70.4121 27.0465 70.2552 29.5482 70.0621L29.2752 66.1372ZM18.1361 66.7904C16.652 66.8578 15.1643 66.9132 13.6729 66.9643L13.7956 70.8985C15.2963 70.8483 16.7967 70.79 18.2967 70.7238L18.1361 66.7904Z" fill="#135794"/>
    </g>
    <defs>
    <clipPath id="clip0_21_553">
    <rect width="73" height="71" fill="white"/>
    </clipPath>
    </defs>
    </svg>