<svg xmlns="http://www.w3.org/2000/svg" width="16" height="27" viewBox="0 0 16 27" fill="none">
    <path d="M0.5493 26.4716C0.722263 26.6391 0.927736 26.772 1.15395 26.8627C1.38016 26.9533 1.62267 27 1.86759 27C2.11251 27 2.35502 26.9533 2.58123 26.8627C2.80744 26.772 3.01291 26.6391 3.18588 26.4716L15.5644 14.5146C15.7025 14.3815 15.812 14.2234 15.8868 14.0493C15.9615 13.8752 16 13.6886 16 13.5002C16 13.3117 15.9615 13.1251 15.8868 12.9511C15.812 12.777 15.7025 12.6189 15.5644 12.4858L3.18588 0.528784C2.45598 -0.176262 1.2792 -0.176262 0.5493 0.528784C-0.180599 1.23383 -0.180599 2.37054 0.5493 3.07558L11.3339 13.5074L0.534407 23.9392C-0.180597 24.6298 -0.180599 25.7809 0.5493 26.4716Z" fill="#034C8C"/>
    </svg>