<svg width="58" height="52" viewBox="0 0 58 52" fill="none" xmlns="http://www.w3.org/2000/svg">
<path d="M9.17081 39.6425H1.33759C0.61656 39.6425 0.0320511 40.1632 0.0320511 40.8055V50.1103C0.0320511 50.7527 0.61656 51.2734 1.33759 51.2734H9.17081C9.89184 51.2734 10.4763 50.7527 10.4763 50.1103V40.8055C10.4763 40.1632 9.89184 39.6425 9.17081 39.6425Z" fill="#135794"/>
<path d="M24.8373 23.359H17.0041C16.283 23.359 15.6985 23.8797 15.6985 24.5221V50.1102C15.6985 50.7525 16.283 51.2733 17.0041 51.2733H24.8373C25.5583 51.2733 26.1428 50.7525 26.1428 50.1102V24.5221C26.1428 23.8797 25.5583 23.359 24.8373 23.359Z" fill="#135794"/>
<path d="M40.5037 39.6425H32.6705C31.9495 39.6425 31.365 40.1632 31.365 40.8055V50.1103C31.365 50.7527 31.9495 51.2734 32.6705 51.2734H40.5037C41.2248 51.2734 41.8093 50.7527 41.8093 50.1103V40.8055C41.8093 40.1632 41.2248 39.6425 40.5037 39.6425Z" fill="#135794"/>
<path d="M56.1702 23.359H48.337C47.616 23.359 47.0315 23.8797 47.0315 24.5221V50.1102C47.0315 50.7525 47.616 51.2733 48.337 51.2733H56.1702C56.8913 51.2733 57.4758 50.7525 57.4758 50.1102V24.5221C57.4758 23.8797 56.8913 23.359 56.1702 23.359Z" fill="#135794"/>
<path d="M53.0186 0.778721L36.5871 15.4174L22.7667 3.10491C22.2771 2.66882 21.613 2.42383 20.9207 2.42383C20.2283 2.42383 19.5643 2.66882 19.0747 3.10491L0.79713 19.3882C0.547746 19.6028 0.348828 19.8595 0.211985 20.1433C0.0751408 20.4271 0.00311129 20.7323 9.85856e-05 21.0412C-0.00291411 21.3501 0.0631506 21.6564 0.194438 21.9423C0.325725 22.2282 0.519605 22.4879 0.764766 22.7063C1.00993 22.9247 1.30146 23.0974 1.62235 23.2144C1.94324 23.3314 2.28707 23.3902 2.63376 23.3875C2.98046 23.3848 3.32309 23.3207 3.64165 23.1988C3.96021 23.0768 4.24833 22.8996 4.48919 22.6775L20.9207 8.03875L34.7411 20.3513C35.2307 20.7874 35.8948 21.0323 36.5871 21.0323C37.2795 21.0323 37.9435 20.7874 38.4332 20.3513L56.7107 4.06795C57.1863 3.62923 57.4495 3.04163 57.4435 2.43171C57.4376 1.82179 57.163 1.23835 56.6789 0.807057C56.1948 0.375763 55.5399 0.13112 54.8553 0.12582C54.1706 0.12052 53.5111 0.354987 53.0186 0.778721Z" fill="#135794"/>
</svg>
