<svg width="44" height="41" viewBox="0 0 44 41" fill="none" xmlns="http://www.w3.org/2000/svg">
<path d="M28.9222 36.4209C28.9226 37.4962 28.4662 38.532 27.6446 39.3204C26.8229 40.1089 25.6967 40.5919 24.4918 40.6726L24.1325 40.6832H19.3429C18.1345 40.6835 16.9707 40.2774 16.0846 39.5462C15.1986 38.8151 14.6559 37.8129 14.5652 36.7406L14.5533 36.4209H28.9222ZM21.7377 0.191406C26.0843 0.191342 30.2609 1.69364 33.3867 4.3814C36.5124 7.06916 38.3429 10.7322 38.4919 14.598L38.5015 15.1094V23.1311L42.8648 30.897C43.0553 31.2358 43.1506 31.6107 43.1426 31.9895C43.1346 32.3683 43.0236 32.7397 42.819 33.072C42.6144 33.4042 42.3224 33.6874 41.9679 33.8973C41.6135 34.1071 41.2072 34.2374 40.7837 34.277L40.5083 34.2898H2.96711C2.54123 34.2899 2.12166 34.1981 1.74437 34.0223C1.36707 33.8465 1.0433 33.5919 0.800799 33.2803C0.558295 32.9688 0.404289 32.6096 0.351979 32.2334C0.299668 31.8573 0.350613 31.4755 0.500447 31.1207L0.610609 30.897L4.97397 23.1311V15.1094C4.97397 11.1529 6.74015 7.35847 9.88396 4.5608C13.0278 1.76312 17.2917 0.191406 21.7377 0.191406Z" fill="#135794"/>
</svg>
