<svg xmlns="http://www.w3.org/2000/svg" width="35" height="26" viewBox="0 0 35 26" fill="none">
    <path d="M17.5 6.85349V1.92482C17.4993 1.54419 17.3707 1.17227 17.1303 0.855912C16.8899 0.539556 16.5485 0.292927 16.1492 0.147103C15.7499 0.00127945 15.3105 -0.0372126 14.8864 0.0364786C14.4623 0.11017 14.0724 0.292746 13.7659 0.561199L0 12.5179L13.7659 24.4727C13.9686 24.6521 14.2096 24.7946 14.475 24.8918C14.7404 24.989 15.025 25.039 15.3125 25.039C15.6 25.039 15.8846 24.989 16.15 24.8918C16.4154 24.7946 16.6564 24.6521 16.8591 24.4727C17.0623 24.2939 17.2235 24.0817 17.3335 23.848C17.4435 23.6144 17.5001 23.3639 17.5 23.111V18.3171C23.5156 18.4481 30.0891 19.4073 35 26V24.074C35 15.1508 27.3438 7.81264 17.5 6.85349Z" fill="black"/>
  </svg>