<svg xmlns="http://www.w3.org/2000/svg" width="24" height="22" viewBox="0 0 24 22" fill="none">
    <g clip-path="url(#clip0_4_36)">
      <path d="M23.9908 10.7864C23.9908 9.91881 23.9112 9.2857 23.739 8.62915H12.5424V12.545H19.1146C18.9821 13.5182 18.2666 14.9837 16.6765 15.9685L16.6542 16.0996L20.1944 18.5262L20.4397 18.5479C22.6922 16.7072 23.9908 13.9988 23.9908 10.7864Z" fill="#4285F4"/>
      <path d="M12.5423 21.1039C15.7621 21.1039 18.4652 20.1659 20.4396 18.548L16.6764 15.9686C15.6694 16.59 14.3178 17.0237 12.5423 17.0237C9.3887 17.0237 6.71211 15.1831 5.75798 12.6389L5.61813 12.6494L1.937 15.1702L1.88885 15.2886C3.84991 18.7355 7.87808 21.1039 12.5423 21.1039Z" fill="#34A853"/>
      <path d="M5.75834 12.6388C5.50658 11.9823 5.36088 11.2788 5.36088 10.5519C5.36088 9.82495 5.50658 9.12152 5.74509 8.46497L5.73842 8.32514L2.01116 5.76392L1.88921 5.81524C1.08096 7.24562 0.617188 8.85188 0.617188 10.5519C0.617188 12.2519 1.08096 13.8581 1.88921 15.2885L5.75834 12.6388Z" fill="#FBBC05"/>
      <path d="M12.5423 4.08003C14.7816 4.08003 16.2921 4.9359 17.1535 5.65113L20.5191 2.74348C18.4521 1.04347 15.7621 0 12.5423 0C7.87808 0 3.84991 2.36829 1.88885 5.8152L5.74474 8.46493C6.71212 5.92076 9.3887 4.08003 12.5423 4.08003Z" fill="#EB4335"/>
    </g>
    <defs>
      <clipPath id="clip0_4_36">
        <rect width="23.3875" height="21.1765" fill="white" transform="translate(0.615662)"/>
      </clipPath>
    </defs>
  </svg>