<svg width="58" height="52" viewBox="0 0 58 52" fill="none" xmlns="http://www.w3.org/2000/svg">
<path d="M34.267 51.4434H23.2088C22.4716 51.4434 21.8326 51.2303 21.292 50.8041C20.7514 50.3779 20.4319 49.8451 20.3336 49.2057L19.449 43.2598C18.8101 43.0467 18.2075 42.791 17.6413 42.4926C17.0752 42.1943 16.5228 41.8746 15.9841 41.5336L9.57035 43.8352C8.88229 44.0484 8.19422 44.0697 7.50616 43.8992C6.81809 43.7287 6.27747 43.3664 5.88429 42.8123L0.428923 34.5648C0.0357436 34.0107 -0.0871251 33.4139 0.0603174 32.7746C0.20776 32.1352 0.576366 31.6238 1.16614 31.2402L6.69523 27.5959C6.64608 27.2975 6.6215 27.0094 6.6215 26.7315V25.0078C6.6215 24.7299 6.64608 24.4418 6.69523 24.1434L1.16614 20.4992C0.576366 20.1156 0.20776 19.6041 0.0603174 18.9648C-0.0871251 18.3254 0.0357436 17.7287 0.428923 17.1746L5.88429 8.92705C6.22832 8.33032 6.75617 7.95695 7.46782 7.80691C8.17948 7.65688 8.88032 7.68928 9.57035 7.90409L15.9841 10.2057C16.5247 9.86475 17.0899 9.54508 17.6797 9.24672C18.2695 8.94836 18.8592 8.69262 19.449 8.4795L20.3336 2.5336C20.4319 1.89426 20.7514 1.36147 21.292 0.935243C21.8326 0.509013 22.4716 0.295898 23.2088 0.295898H34.267C35.0042 0.295898 35.6431 0.509013 36.1837 0.935243C36.7243 1.36147 37.0438 1.89426 37.1421 2.5336L38.0267 8.4795C38.6657 8.69262 39.2682 8.94836 39.8344 9.24672C40.4006 9.54508 40.953 9.86475 41.4916 10.2057L47.9054 7.90409C48.5934 7.69098 49.2815 7.66967 49.9696 7.84016C50.6576 8.01065 51.1983 8.37295 51.5914 8.92705L57.0468 17.1746C57.44 17.7287 57.5629 18.3254 57.4154 18.9648C57.268 19.6041 56.8994 20.1156 56.3096 20.4992L50.7805 24.1434C50.8297 24.4418 50.8542 24.7299 50.8542 25.0078V26.7315C50.8542 27.0094 50.8051 27.2975 50.7068 27.5959L56.2359 31.2402C56.8256 31.6238 57.1943 32.1352 57.3417 32.7746C57.4891 33.4139 57.3663 34.0107 56.9731 34.5648L51.5177 42.7484C51.1245 43.3025 50.5711 43.6758 49.8575 43.8685C49.1439 44.0611 48.444 44.0501 47.7579 43.8352L41.4916 41.5336C40.951 41.8746 40.3858 42.1943 39.796 42.4926C39.2063 42.791 38.6165 43.0467 38.0267 43.2598L37.1421 49.2057C37.0438 49.8451 36.7243 50.3779 36.1837 50.8041C35.6431 51.2303 35.0042 51.4434 34.267 51.4434ZM28.8853 34.8205C31.7359 34.8205 34.1687 33.9467 36.1837 32.1992C38.1988 30.4516 39.2063 28.3418 39.2063 25.8697C39.2063 23.3975 38.1988 21.2877 36.1837 19.5402C34.1687 17.7926 31.7359 16.9188 28.8853 16.9188C25.9856 16.9188 23.54 17.7926 21.5486 19.5402C19.5571 21.2877 18.5624 23.3975 18.5643 25.8697C18.5643 28.3418 19.5591 30.4516 21.5486 32.1992C23.5381 33.9467 25.9836 34.8205 28.8853 34.8205ZM28.8853 29.7057C27.6566 29.7057 26.6117 29.3324 25.7507 28.5856C24.8896 27.8389 24.4601 26.9335 24.462 25.8697C24.462 24.8041 24.8926 23.8979 25.7536 23.1512C26.6147 22.4044 27.6586 22.0319 28.8853 22.0336C30.114 22.0336 31.1589 22.407 32.0199 23.1537C32.881 23.9005 33.3105 24.8058 33.3086 25.8697C33.3086 26.9352 32.878 27.8414 32.017 28.5882C31.1559 29.3349 30.112 29.7074 28.8853 29.7057ZM25.789 46.3287H31.613L32.6451 39.5516C34.1687 39.2107 35.5821 38.7094 36.8855 38.0479C38.1889 37.3864 39.3803 36.5876 40.4595 35.6516L47.7579 38.2729L50.6331 33.9254L44.293 29.7697C44.5388 29.1729 44.7108 28.5447 44.8091 27.8849C44.9074 27.2251 44.9565 26.5533 44.9565 25.8697C44.9565 25.1877 44.9074 24.5168 44.8091 23.857C44.7108 23.1972 44.5388 22.5681 44.293 21.9697L50.6331 17.8139L47.7579 13.4664L40.4595 16.1516C39.3783 15.1713 38.187 14.3512 36.8855 13.6914C35.5841 13.0316 34.1706 12.5304 32.6451 12.1877L31.6867 5.41065H25.8627L24.8306 12.1877C23.3071 12.5287 21.8946 13.0299 20.5931 13.6914C19.2917 14.3529 18.0994 15.1517 17.0162 16.0877L9.7178 13.4664L6.84267 17.8139L13.1827 21.9057C12.937 22.5451 12.7649 23.1844 12.6666 23.8238C12.5683 24.4631 12.5192 25.1451 12.5192 25.8697C12.5192 26.5516 12.5683 27.2123 12.6666 27.8516C12.7649 28.491 12.937 29.1303 13.1827 29.7697L6.84267 33.9254L9.7178 38.2729L17.0162 35.5877C18.0974 36.568 19.2898 37.389 20.5931 38.0505C21.8965 38.712 23.309 39.2124 24.8306 39.5516L25.789 46.3287Z" fill="#135794"/>
</svg>
