<svg width="59" height="52" viewBox="0 0 59 52" fill="none" xmlns="http://www.w3.org/2000/svg">
<path d="M26.6382 41.4299H32.3858V36.3151H26.6382V41.4299ZM29.512 0.511841C13.6487 0.511841 0.77417 11.9689 0.77417 26.0856C0.77417 40.2023 13.6487 51.6594 29.512 51.6594C45.3753 51.6594 58.2499 40.2023 58.2499 26.0856C58.2499 11.9689 45.3753 0.511841 29.512 0.511841ZM29.512 46.5446C16.8386 46.5446 6.52174 37.3636 6.52174 26.0856C6.52174 14.8076 16.8386 5.6266 29.512 5.6266C42.1854 5.6266 52.5023 14.8076 52.5023 26.0856C52.5023 37.3636 42.1854 46.5446 29.512 46.5446ZM29.512 10.7413C23.161 10.7413 18.0169 15.3191 18.0169 20.9709H23.7645C23.7645 18.1577 26.3509 15.8561 29.512 15.8561C32.6732 15.8561 35.2596 18.1577 35.2596 20.9709C35.2596 26.0856 26.6382 25.4463 26.6382 33.7577H32.3858C32.3858 28.0036 41.0072 27.3643 41.0072 20.9709C41.0072 15.3191 35.8631 10.7413 29.512 10.7413Z" fill="#135794"/>
</svg>
