<svg width="53" height="52" viewBox="0 0 53 52" fill="none" xmlns="http://www.w3.org/2000/svg">
<path fill-rule="evenodd" clip-rule="evenodd" d="M26.6532 47.0146C30.3689 47.0201 34.02 46.0469 37.2361 44.1938V37.2875C37.2361 35.3526 36.4641 33.497 35.0901 32.1289C33.7161 30.7607 31.8526 29.9921 29.9094 29.9921H23.3969C21.4538 29.9921 19.5902 30.7607 18.2162 32.1289C16.8422 33.497 16.0703 35.3526 16.0703 37.2875V44.1938C19.2864 46.0469 22.9375 47.0201 26.6532 47.0146ZM42.1205 37.2875V40.3256C44.9362 37.3241 46.8098 33.5689 47.5109 29.5214C48.2121 25.4739 47.7102 21.3106 46.0671 17.5433C44.4239 13.7761 41.7111 10.5689 38.262 8.31622C34.813 6.06351 30.778 4.86339 26.6532 4.86339C22.5283 4.86339 18.4934 6.06351 15.0444 8.31622C11.5953 10.5689 8.88245 13.7761 7.2393 17.5433C5.59615 21.3106 5.09431 25.4739 5.79545 29.5214C6.4966 33.5689 8.37019 37.3241 11.1859 40.3256V37.2875C11.1859 34.7807 11.9635 32.3351 13.4125 30.2852C14.8615 28.2353 16.9111 26.6812 19.281 25.8354C18.0514 24.4271 17.2545 22.6963 16.9855 20.8495C16.7165 19.0027 16.9867 17.1179 17.7638 15.4198C18.5409 13.7217 19.7922 12.282 21.3684 11.2724C22.9445 10.2629 24.7791 9.72611 26.6532 9.72611C28.5273 9.72611 30.3618 10.2629 31.938 11.2724C33.5142 12.282 34.7654 13.7217 35.5425 15.4198C36.3197 17.1179 36.5898 19.0027 36.3208 20.8495C36.0518 22.6963 35.255 24.4271 34.0254 25.8354C36.3952 26.6812 38.4448 28.2353 39.8938 30.2852C41.3428 32.3351 42.1205 34.7807 42.1205 37.2875ZM26.6532 51.8782C33.5621 51.8782 40.1881 49.1454 45.0734 44.2808C49.9588 39.4163 52.7033 32.8186 52.7033 25.9391C52.7033 19.0596 49.9588 12.4619 45.0734 7.59739C40.1881 2.73286 33.5621 0 26.6532 0C19.7442 0 13.1183 2.73286 8.23294 7.59739C3.34759 12.4619 0.603027 19.0596 0.603027 25.9391C0.603027 32.8186 3.34759 39.4163 8.23294 44.2808C13.1183 49.1454 19.7442 51.8782 26.6532 51.8782ZM31.5376 19.4543C31.5376 20.7442 31.023 21.9813 30.107 22.8934C29.191 23.8055 27.9486 24.3179 26.6532 24.3179C25.3578 24.3179 24.1154 23.8055 23.1994 22.8934C22.2834 21.9813 21.7688 20.7442 21.7688 19.4543C21.7688 18.1644 22.2834 16.9274 23.1994 16.0153C24.1154 15.1032 25.3578 14.5907 26.6532 14.5907C27.9486 14.5907 29.191 15.1032 30.107 16.0153C31.023 16.9274 31.5376 18.1644 31.5376 19.4543Z" fill="#135794"/>
</svg>
