<svg xmlns="http://www.w3.org/2000/svg" width="66" height="66" viewBox="0 0 66 66" fill="none">
    <rect width="66" height="66" fill="white"/>
    <path fill-rule="evenodd" clip-rule="evenodd" d="M8.25 8.25H50.875V15.125H48.125V11H11V42.625H40.4071V45.375H8.25V8.25ZM49.5 26.125C50.594 26.125 51.6432 25.6904 52.4168 24.9168C53.1904 24.1432 53.625 23.094 53.625 22C53.625 20.906 53.1904 19.8568 52.4168 19.0832C51.6432 18.3096 50.594 17.875 49.5 17.875C48.406 17.875 47.3568 18.3096 46.5832 19.0832C45.8096 19.8568 45.375 20.906 45.375 22C45.375 23.094 45.8096 24.1432 46.5832 24.9168C47.3568 25.6904 48.406 26.125 49.5 26.125ZM52.2926 28.8888C54.0787 28.8888 55.4922 29.6917 56.4176 30.932C57.2825 32.0939 57.6483 33.5308 57.7308 34.8576C57.8116 36.2187 57.6261 37.5825 57.1849 38.8726C56.7724 40.0689 56.0752 41.3064 55 42.1548V55.6875C55.001 56.2057 54.8069 56.7053 54.4563 57.0869C54.1057 57.4685 53.6243 57.7041 53.1079 57.7469C52.5914 57.7897 52.0778 57.6366 51.6692 57.3179C51.2605 56.9992 50.9868 56.5384 50.9025 56.0271L49.1287 45.375H48.719L46.7142 56.067C46.6191 56.5716 46.339 57.0226 45.929 57.3317C45.5189 57.6408 45.0082 57.7858 44.4969 57.7383C43.9856 57.6909 43.5103 57.4544 43.1642 57.0751C42.818 56.6958 42.6257 56.201 42.625 55.6875V36.0704C42.35 36.4892 42.0787 36.9105 41.811 37.334L41.7038 37.5031L41.6763 37.5471L41.6694 37.5595C41.4841 37.857 41.226 38.1024 40.9195 38.2725C40.613 38.4426 40.2682 38.5318 39.9176 38.5316H33.0426C32.4956 38.5316 31.971 38.3143 31.5842 37.9275C31.1974 37.5407 30.9801 37.0161 30.9801 36.4691C30.9801 35.9221 31.1974 35.3975 31.5842 35.0107C31.971 34.6239 32.4956 34.4066 33.0426 34.4066H38.786C39.1201 33.8896 39.5601 33.2186 40.0221 32.5449C40.5034 31.8423 41.0341 31.0984 41.5071 30.5154C41.7368 30.2308 41.9939 29.9338 42.2524 29.6904C42.3789 29.5708 42.5549 29.4154 42.7694 29.2779C43.1479 29.0294 43.5898 28.8948 44.0426 28.8901L52.2926 28.8888Z" fill="#135794"/>
  </svg>