<svg width="66" height="63" viewBox="0 0 66 63" fill="none" xmlns="http://www.w3.org/2000/svg">
<g clip-path="url(#clip0_21_548)">
<path d="M13.86 20.16C6.24294 20.16 0 26.1009 0 33.3522C0 36.162 0.93984 38.7733 2.5311 40.9197L12.1691 56.8235C13.5188 58.5068 14.4164 58.1874 15.539 56.7353L26.169 39.467C26.3835 39.0953 26.5518 38.7009 26.699 38.2977C27.3735 36.7284 27.7204 35.0484 27.72 33.3522C27.72 26.1009 21.479 20.16 13.86 20.16ZM13.86 26.3415C17.9626 26.3415 21.2256 29.4481 21.2256 33.3528C21.2256 37.2575 17.9626 40.3628 13.86 40.3628C9.7581 40.3628 6.4944 37.2569 6.4944 33.3528C6.4944 29.4481 9.7581 26.3415 13.86 26.3415Z" fill="#135794"/>
<path d="M57.915 0C53.4718 0 49.83 3.46563 49.83 7.69608C49.83 9.33471 50.3778 10.8581 51.3064 12.1099L56.9289 21.3872C57.7163 22.3688 58.2397 22.1823 58.8944 21.3356L65.0951 11.2619C65.2205 11.0458 65.3188 10.8158 65.404 10.5802C65.7976 9.66509 66.0001 8.68534 66 7.69608C66 3.465 62.3594 0 57.915 0ZM57.915 3.60612C60.3081 3.60612 62.2116 5.418 62.2116 7.69608C62.2116 9.97353 60.3081 11.7848 57.915 11.7848C55.5225 11.7848 53.6184 9.97353 53.6184 7.69608C53.6184 5.418 55.5225 3.60612 57.915 3.60612Z" fill="#135794"/>
<path fill-rule="evenodd" clip-rule="evenodd" d="M58.218 23.5696C56.7349 23.6011 55.248 23.6609 53.7583 23.7661L53.988 27.2513C55.4189 27.1524 56.8523 27.0887 58.2866 27.0604L58.218 23.5696ZM50.3145 24.0862C48.0243 24.3577 45.7143 24.7445 43.4307 25.3663L44.2906 28.7438C46.3657 28.1793 48.516 27.8145 50.6999 27.5556L50.3145 24.0862ZM40.0112 26.5356C39.327 26.8239 38.6645 27.1571 38.0286 27.5329L38.0259 27.5361L38.022 27.5373C37.1145 28.0829 36.1581 28.7753 35.3773 29.7814C34.8117 30.5103 34.3491 31.432 34.2408 32.5219L37.6035 32.8778C37.6286 32.6221 37.7659 32.2844 38.0127 31.9669H38.014V31.9656C38.412 31.4515 39.0087 30.9847 39.7182 30.5575L39.7208 30.5563C40.2265 30.2583 40.7531 29.994 41.2969 29.765L40.0112 26.5356ZM38.28 34.4327L36.1 37.1007C36.6168 37.5518 37.1587 37.8983 37.6821 38.1881L37.6887 38.1912L37.6953 38.195C39.4324 39.1381 41.2236 39.6705 42.8842 40.1758L43.8385 36.8254C42.1786 36.3202 40.6138 35.8325 39.2727 35.1055C38.8885 34.8926 38.5519 34.6702 38.28 34.4327ZM47.0811 37.7679L46.1492 41.1239L46.5901 41.2549L47.1313 41.42C48.9225 41.9763 50.6385 42.5704 52.1724 43.3925L53.7286 40.2929C51.874 39.2982 49.9488 38.648 48.0936 38.0722L48.0883 38.0709L47.5326 37.9015L47.0811 37.7679ZM56.8933 42.6189L54.5022 45.0885C55.0671 45.6725 55.4902 46.375 55.6961 47.1007L55.6974 47.1045L55.6987 47.1102C55.9443 47.9575 55.9449 48.9542 55.7529 49.9609L59.0687 50.6363C59.3393 49.215 59.3829 47.6545 58.938 46.1141C58.5506 44.7521 57.8114 43.5689 56.8933 42.6189ZM54.5952 52.0651C54.2298 52.4335 53.826 52.7653 53.3901 53.0555H53.3887C52.2007 53.853 50.8227 54.4541 49.3588 54.9707L50.4504 58.2744C52.0516 57.7093 53.6956 57.0163 55.2321 55.9843L55.2361 55.9812L55.2381 55.9799C55.8691 55.5582 56.4527 55.0753 56.9798 54.5391L54.5952 52.0651ZM46.2528 55.9012C44.1322 56.4455 41.9648 56.86 39.771 57.2116L40.2884 60.6634C42.5463 60.3011 44.8134 59.8683 47.0666 59.29L46.2528 55.9012ZM36.4703 57.6879C34.2619 57.9758 32.0417 58.2108 29.8149 58.4111L30.1066 61.89C32.3677 61.6871 34.6329 61.4483 36.8947 61.1529L36.4703 57.6879ZM26.468 58.6852C24.2365 58.854 21.9998 58.9913 19.7611 59.1073L19.93 62.5949C22.1905 62.4784 24.453 62.3392 26.7148 62.1678L26.468 58.6852ZM16.3971 59.2648C15.0553 59.3246 13.7102 59.3737 12.3618 59.4191L12.4727 62.9099C13.8295 62.8654 15.186 62.8137 16.5423 62.755L16.3971 59.2648Z" fill="#135794"/>
</g>
<defs>
<clipPath id="clip0_21_548">
<rect width="66" height="63" fill="white"/>
</clipPath>
</defs>
</svg>
