<svg xmlns="http://www.w3.org/2000/svg" width="84" height="95" viewBox="0 0 84 95" fill="none">
    <path fill-rule="evenodd" clip-rule="evenodd" d="M10.664 95H25.2002L31.1054 77.4345L18.6482 72.6655L10.664 95ZM52.895 77.4345L58.8002 95H73.3364L65.3522 72.6655L52.895 77.4345ZM75.6002 9.5H48.3002L46.2002 0H37.8002L35.7002 9.5H8.4002C7.28629 9.5 6.218 10.0004 5.43035 10.8912C4.64269 11.782 4.2002 12.9902 4.2002 14.25V66.5C4.2002 67.7598 4.64269 68.968 5.43035 69.8588C6.218 70.7496 7.28629 71.25 8.4002 71.25H75.6002C76.7141 71.25 77.7824 70.7496 78.57 69.8588C79.3577 68.968 79.8002 67.7598 79.8002 66.5V14.25C79.8002 12.9902 79.3577 11.782 78.57 10.8912C77.7824 10.0004 76.7141 9.5 75.6002 9.5Z" fill="#F29F05"/>
  </svg>